<?xml version="1.0" encoding="iso-8859-1"?>
<!-- Generator: Adobe Illustrator 18.0.0, SVG Export Plug-In . SVG Version: 6.00 Build 0)  -->
<!DOCTYPE svg PUBLIC "-//W3C//DTD SVG 1.1//EN" "http://www.w3.org/Graphics/SVG/1.1/DTD/svg11.dtd">
<svg version="1.1" id="Capa_1" xmlns="http://www.w3.org/2000/svg" xmlns:xlink="http://www.w3.org/1999/xlink" x="0px" y="0px"
	 viewBox="0 0 471.594 471.594" style="enable-background:new 0 0 471.594 471.594;" xml:space="preserve">
<path d="M266.424,197.665c-49.122-18.528-69.346-30.641-69.346-49.711c0-16.172,12.136-32.36,49.695-32.36
	c20.672,0,37.642,3.284,51.32,7.358c8.52,2.541,17.715,1.473,25.453-2.896c7.738-4.383,13.361-11.726,15.569-20.34l0.123-0.48
	c4.593-17.907-6.111-36.156-23.965-40.88c-14.359-3.812-31.5-6.585-52.305-7.515V28.316C262.968,12.672,250.29,0,234.651,0
	c-15.638,0-28.317,12.672-28.317,28.316v26.6c-61.849,12.112-97.68,51.986-97.68,102.845c0,56.076,42.19,84.968,104.015,105.771
	c42.779,14.454,61.267,28.318,61.267,50.285c0,23.112-22.523,35.845-55.474,35.845c-22.508,0-43.763-4.368-62.406-10.72
	c-8.845-3.021-18.55-2.214-26.776,2.231c-8.217,4.432-14.212,12.1-16.536,21.162l-0.139,0.54
	c-4.601,17.955,5.631,36.374,23.29,41.997c19.736,6.258,43.407,10.704,67.535,11.789v26.613c0,15.646,12.679,28.318,28.316,28.318
	c15.639,0,28.318-12.673,28.318-28.318v-30.641c66.479-11.558,102.875-55.474,102.875-106.92
	C362.939,253.712,335.195,221.908,266.424,197.665z"/>
<g>
</g>
<g>
</g>
<g>
</g>
<g>
</g>
<g>
</g>
<g>
</g>
<g>
</g>
<g>
</g>
<g>
</g>
<g>
</g>
<g>
</g>
<g>
</g>
<g>
</g>
<g>
</g>
<g>
</g>
</svg>
